<svg width="31" height="31" viewBox="0 0 31 31" fill="none" xmlns="http://www.w3.org/2000/svg">
<path d="M15.425 29.6295C23.2701 29.6295 29.6298 23.2698 29.6298 15.4248C29.6298 7.57967 23.2701 1.21997 15.425 1.21997C7.57991 1.21997 1.22021 7.57967 1.22021 15.4248C1.22021 23.2698 7.57991 29.6295 15.425 29.6295Z" fill="#3E5135"/>
<path fill-rule="evenodd" clip-rule="evenodd" d="M9.75793 14.4253C9.23481 14.0759 8.53601 14.1553 8.1033 14.6126C7.67124 15.0692 7.63055 15.7719 8.00836 16.275L11.8834 21.4416C12.1172 21.7529 12.4788 21.9428 12.8683 21.9576C13.257 21.9719 13.6323 21.8104 13.8887 21.5172L22.9303 11.1838C23.3766 10.6743 23.3527 9.90639 22.8761 9.4246C22.3995 8.94281 21.6322 8.91181 21.1175 9.35227L12.8192 16.4655L9.75793 14.4253Z" fill="#E1FE6E"/>
</svg>
