<svg width="50" height="50" viewBox="0 0 50 50" fill="none" xmlns="http://www.w3.org/2000/svg">
<path d="M23.6 24.4999C23.4 24.1499 23 23.8999 22.6 23.8999H11.65C11.25 23.8999 10.85 24.0999 10.65 24.4999L5.15 33.8499C4.95 34.1999 4.95 34.6499 5.15 35.0499L10.6 44.4499C10.8 44.7999 11.2 45.0499 11.6 45.0499H22.55C22.95 45.0499 23.35 44.8499 23.55 44.4499L29 35.0499C29.2 34.6999 29.2 34.2499 29 33.8499L23.6 24.4999ZM17.1 39.1499C14.5 39.1499 12.4 37.0499 12.4 34.4499C12.4 31.8499 14.5 29.7499 17.1 29.7499C19.7 29.7499 21.8 31.8499 21.8 34.4499C21.8 37.0499 19.7 39.1499 17.1 39.1499Z" fill="black"/>
<path d="M44.85 20.7999L35.85 5.54995C35.65 5.19995 35.25 4.94995 34.85 4.94995H16.9C16.5 4.94995 16.1 5.14995 15.9 5.54995L6.9 20.7999C6.7 21.1499 6.7 21.5999 6.9 21.9999L8.15 24.1L8.6 23.2999C9.25 22.1999 10.4 21.5499 11.65 21.5499H17.65C17.65 21.4999 17.65 21.4499 17.65 21.4C17.65 16.9 21.35 13.2 25.85 13.2C30.35 13.2 34.05 16.9 34.05 21.4C34.05 24.8499 31.95 27.7999 28.95 28.9999L31.1 32.6999C31.75 33.7999 31.75 35.1499 31.1 36.2499L30.15 37.8499H34.85C35.25 37.8499 35.65 37.6499 35.85 37.2499L44.85 21.9999C45.05 21.6499 45.05 21.1999 44.85 20.7999Z" fill="black"/>
</svg>
