<svg width="53" height="53" viewBox="0 0 53 53" fill="none" xmlns="http://www.w3.org/2000/svg">
<g clip-path="url(#clip0_23_240)">
<path d="M15.1427 18.9285H20.8213C21.344 18.9285 21.7677 18.5048 21.7677 17.9821C21.7677 17.4594 21.344 17.0356 20.8213 17.0356H15.1427C14.62 17.0356 14.1963 17.4594 14.1963 17.9821C14.1963 18.5048 14.62 18.9285 15.1427 18.9285Z" fill="#3A421B"/>
<path d="M17.0356 21.768C17.0356 22.2907 17.4594 22.7144 17.9821 22.7144C18.5048 22.7144 18.9285 22.2907 18.9285 21.768V20.8215H17.0356V21.768Z" fill="#3A421B"/>
<path d="M17.0356 28.3928H18.9285V31.2321H17.0356V28.3928Z" fill="#3A421B"/>
<path d="M38.8034 24.6072C30.9629 24.6072 24.6069 30.9631 24.6069 38.8036C24.6069 46.6441 30.9629 53 38.8034 53C46.6438 53 52.9998 46.6441 52.9998 38.8036C52.9904 30.967 46.6399 24.6166 38.8034 24.6072ZM45.2107 33.7307L35.7464 45.0879C35.5767 45.2967 35.3244 45.4211 35.0555 45.4286H35.0176C34.7662 45.4293 34.5247 45.3307 34.3457 45.1541L32.4528 43.2613C32.0817 42.8902 32.0817 42.2885 32.4528 41.9174C32.8239 41.5462 33.4256 41.5462 33.7968 41.9174L34.9514 43.0815L43.7532 32.5193C43.9696 32.259 44.3084 32.1338 44.6421 32.1911C44.9758 32.2483 45.2536 32.4792 45.3709 32.7968C45.4881 33.1144 45.4271 33.4704 45.2107 33.7307Z" fill="#3A421B"/>
<path d="M1.52375 25.1371L15.2186 27.8818C15.4491 27.068 16.1899 26.5046 17.0357 26.5H18.9286C19.7744 26.5046 20.5152 27.068 20.7457 27.8818L28.7241 26.2823C30.8212 24.5898 33.3115 23.4537 35.9643 22.9793V12.3035C35.9643 11.7808 35.5406 11.3571 35.0179 11.3571H30.2857V8.51783C30.2857 7.47243 29.4383 6.62497 28.3929 6.62497H24.6005C24.6026 6.33364 24.5858 6.04248 24.5504 5.75331C24.1466 2.75289 21.7643 0.405562 18.7582 0.046345C16.8734 -0.190196 14.9792 0.40779 13.5718 1.68367C12.1617 2.93887 11.3557 4.73716 11.3571 6.62497H7.57143C6.52603 6.62497 5.67857 7.47243 5.67857 8.51783V11.3571H0.946429C0.42373 11.3571 0 11.7808 0 12.3035V23.2821C0.00475853 24.1832 0.640755 24.9574 1.52375 25.1371ZM17.9821 1.89283C18.5048 1.89283 18.9286 2.31656 18.9286 2.83926C18.9286 3.36195 18.5048 3.78568 17.9821 3.78568C16.416 3.79036 15.1475 5.05882 15.1429 6.62497C15.1429 7.14767 14.7191 7.5714 14.1964 7.5714C13.6737 7.5714 13.25 7.14767 13.25 6.62497C13.25 5.36993 13.7486 4.16629 14.636 3.27884C15.5235 2.39139 16.7271 1.89283 17.9821 1.89283ZM7.57143 8.51783H11.3571C11.4483 8.51305 11.5382 8.49487 11.624 8.46388C12.0635 10.0069 13.0526 11.3357 14.4046 12.1994C15.4091 12.8491 16.0342 13.9474 16.0798 15.1428H19.8845C19.9344 13.9559 20.5503 12.8649 21.5407 12.2089C22.9026 11.347 23.9 10.0144 24.3431 8.46483C24.4281 8.49499 24.517 8.51284 24.6071 8.51783H28.3929V11.3571H25.0614C24.4086 12.3395 23.5575 13.1744 22.5629 13.8084C22.0697 14.1548 21.7765 14.72 21.7773 15.3226C22.9058 15.7198 23.6607 16.7858 23.6607 17.9821C23.656 19.5483 22.3876 20.8167 20.8214 20.8214V21.7678C20.8214 23.3359 19.5502 24.6071 17.9821 24.6071C16.414 24.6071 15.1429 23.3359 15.1429 21.7678V20.8214C13.7613 20.827 12.5779 19.8339 12.3435 18.4724C12.1092 17.1109 12.8925 15.7793 14.1964 15.3226C14.1948 14.7111 13.8898 14.1403 13.3825 13.7989C12.4029 13.1598 11.5627 12.3292 10.9123 11.3571H7.57143V8.51783Z" fill="#3A421B"/>
<path d="M1.89307 27.1436V36.9107C1.89307 37.4334 2.3168 37.8571 2.8395 37.8571H22.7618C22.9509 34.5075 24.1893 31.3023 26.3015 28.6957L20.8216 29.7936V31.2321C20.8185 32.2762 19.9729 33.1219 18.9288 33.125H17.0359C15.9918 33.1219 15.1462 32.2762 15.1431 31.2321V29.7936L1.89307 27.1436Z" fill="#3A421B"/>
</g>
<defs>
<clipPath id="clip0_23_240">
<rect width="53" height="53" fill="white"/>
</clipPath>
</defs>
</svg>
