<svg width="50" height="50" viewBox="0 0 50 50" fill="none" xmlns="http://www.w3.org/2000/svg">
<g clip-path="url(#clip0_35_125)">
<path d="M46.9169 44.7967C46.5577 44.0719 45.679 43.7754 44.9539 44.1348C43.4386 44.8858 41.6258 45.4861 39.6176 45.9431L37.5371 33.5655L14.0088 31.34L9.8879 44.0414C8.03849 43.2965 6.48985 42.4218 5.36837 41.4257C4.76349 40.8885 3.83751 40.9433 3.3003 41.5481C2.7631 42.1529 2.81788 43.0786 3.42267 43.6159C11.3986 50.6999 35.4874 52.0957 46.2549 46.7596C46.9799 46.4004 47.2762 45.5216 46.9169 44.7967ZM12.6578 44.9973L15.4512 36.3894L35.2541 38.1784L36.7603 46.4792C29.1007 47.6384 19.5711 47.0421 12.6578 44.9973Z" fill="#111310"/>
<path d="M12.5167 26.6352C12.3473 27.4913 12.9548 28.2983 13.8155 28.3797C15.8584 28.5729 35.1623 30.3981 37.8437 30.6516L40.0673 9.49171C40.1523 8.68703 39.5683 7.96642 38.7636 7.88146C37.9589 7.79747 37.2382 8.38048 37.1542 9.18507L35.2323 27.4613C34.1426 27.3583 15.3755 25.5846 14.0913 25.4632C13.3354 25.3915 12.6608 25.9068 12.5167 26.6352Z" fill="#111310"/>
<path d="M22.0693 23.5338C28.558 23.5338 33.8369 18.2552 33.8369 11.7669C33.8369 5.27861 28.558 0 22.0693 0C15.5807 0 10.3018 5.27861 10.3018 11.7669C10.3018 18.2552 15.5806 23.5338 22.0693 23.5338ZM18.6243 14.7104C19.0228 14.1011 19.8398 13.9302 20.4493 14.3289C21.7544 15.1828 22.9209 14.7568 23.0788 13.8178C23.2926 12.5461 21.4605 13.1491 19.6353 11.523C17.9774 10.0463 18.5429 6.96533 20.8902 6.23232V5.76182C20.8902 5.03369 21.4805 4.44346 22.2086 4.44346C22.9367 4.44346 23.527 5.03369 23.527 5.76182V6.28789C26.5935 7.40977 24.5194 10.1987 22.8978 8.90127L22.8969 8.90225C22.5726 8.68604 22.0693 8.57617 21.6813 8.74678C21.2979 8.91523 21.2695 9.37461 21.3892 9.5541C21.6783 9.98809 22.15 10.0134 23.404 10.4567C26.5999 11.5864 26.3644 15.7698 23.5271 17.04V17.8716C23.5271 18.5997 22.9368 19.1899 22.2087 19.1899C21.4806 19.1899 20.8903 18.5997 20.8903 17.8716V17.3047C20.2678 17.2133 19.716 16.9999 19.006 16.5354C18.3965 16.1369 18.2257 15.3198 18.6243 14.7104Z" fill="#55CC52"/>
</g>
<defs>
<clipPath id="clip0_35_125">
<rect width="50" height="50" fill="white"/>
</clipPath>
</defs>
</svg>
