<svg width="42" height="42" viewBox="0 0 42 42" fill="none" xmlns="http://www.w3.org/2000/svg">
<g clip-path="url(#clip0_35_22)">
<path d="M16.0782 7.38285H18.129V9.4041C19.1515 9.67883 20.1163 10.096 21.0001 10.634C21.8838 10.096 22.8486 9.67883 23.8711 9.4041V7.38285H25.9219C27.0182 7.38285 27.5671 6.05747 26.792 5.28228L21.8702 0.360404C21.3896 -0.120135 20.6106 -0.120135 20.13 0.360404L15.2082 5.28228C14.4329 6.05747 14.9819 7.38285 16.0782 7.38285Z" fill="#111310"/>
<path d="M16.0184 17.3316C16.518 15.3973 17.5287 13.6665 18.897 12.2918C17.7915 11.7757 16.5585 11.4868 15.2579 11.4868H9.92582V9.43605C9.92582 8.33978 8.60044 7.79083 7.82525 8.56603L2.90337 13.4879C2.42283 13.9684 2.42283 14.7475 2.90337 15.228L7.82525 20.1499C8.60036 20.925 9.92582 20.3761 9.92582 19.2799V17.2291H15.2579C15.5213 17.2291 15.776 17.2653 16.0184 17.3316Z" fill="#111310"/>
<path d="M21 32.1562C26.4366 32.1562 30.8438 30.3199 30.8438 28.0547C30.8438 25.7895 26.4366 23.9531 21 23.9531C15.5634 23.9531 11.1562 25.7895 11.1562 28.0547C11.1562 30.3199 15.5634 32.1562 21 32.1562Z" fill="#55CC52"/>
<path d="M33.3048 34.5105C37.757 34.1173 41.0978 32.4705 41.0978 30.4984C41.0978 28.4805 37.6007 26.803 32.9941 26.4607C33.2374 27.0706 33.3048 27.6265 33.3048 28.0547V34.5105Z" fill="#111310"/>
<path d="M33.3047 36.9779V37.8985C33.3047 38.3225 33.2385 38.8718 33.001 39.4747C37.6042 39.1311 41.0977 37.4544 41.0977 35.4375V34.6328C40.5694 34.9985 39.9313 35.3494 39.161 35.6703C37.5156 36.3558 35.4859 36.8043 33.3047 36.9779Z" fill="#111310"/>
<path d="M8.69539 36.9779C6.51418 36.8041 4.48448 36.3558 2.83902 35.6701C2.06883 35.3492 1.43071 34.9984 0.902344 34.6327V35.4375C0.902344 37.4543 4.39589 39.1311 8.99907 39.4747C8.76159 38.8717 8.69539 38.3225 8.69539 37.8984V36.9779Z" fill="#111310"/>
<path d="M0.902344 30.4984C0.902344 32.4705 4.24323 34.1173 8.69531 34.5105V28.0547C8.69531 27.6265 8.76266 27.0707 9.00597 26.4607C4.39942 26.8031 0.902344 28.4805 0.902344 30.4984Z" fill="#111310"/>
<path d="M21 39.5391C18.0533 39.5391 15.2451 39.0452 13.0929 38.1485C12.3227 37.8276 11.6846 37.4769 11.1562 37.1111V37.8985C11.1562 40.1637 15.5635 42.0001 21 42.0001C26.4365 42.0001 30.8438 40.1637 30.8438 37.8985V37.1111C30.3155 37.4768 29.6773 37.8276 28.9072 38.1485C26.7549 39.0452 23.9468 39.5391 21 39.5391Z" fill="#111310"/>
<path d="M21 34.6173C18.0533 34.6173 15.2451 34.1233 13.0929 33.2267C12.3227 32.9058 11.6846 32.555 11.1562 32.1892V32.9766C11.1562 35.2418 15.5635 37.0782 21 37.0782C26.4365 37.0782 30.8438 35.2418 30.8438 32.9766V32.1892C30.3155 32.5549 29.6773 32.9058 28.9072 33.2267C26.7549 34.1233 23.9468 34.6173 21 34.6173Z" fill="#111310"/>
<path d="M34.1748 20.15L39.0967 15.2281C39.5772 14.7475 39.5772 13.9685 39.0967 13.488L34.1748 8.56608C33.3996 7.79081 32.0742 8.33976 32.0742 9.43602V11.4868H26.7422C21.9852 11.4868 18.1289 15.3431 18.1289 20.1001V21.6535C19.0582 21.5479 20.0211 21.4922 21 21.4922C21.9789 21.4922 22.9418 21.5479 23.8711 21.6535V20.1002C23.8711 18.5145 25.1565 17.2291 26.7422 17.2291H32.0742V19.2799C32.0742 20.3761 33.3996 20.9251 34.1748 20.15Z" fill="#111310"/>
</g>
<defs>
<clipPath id="clip0_35_22">
<rect width="42" height="42" fill="white"/>
</clipPath>
</defs>
</svg>
