<svg width="54" height="54" viewBox="0 0 54 54" fill="none" xmlns="http://www.w3.org/2000/svg">
<g clip-path="url(#clip0_24_286)">
<path d="M18.3448 39.7394C24.9556 44.2432 33.9078 42.9771 39.0103 36.8165C44.1128 30.6559 43.6895 21.6245 38.0332 15.9682C32.3769 10.3119 23.3454 9.88856 17.1848 14.991C11.0243 20.0935 9.7581 29.0458 14.262 35.6566L16.3506 33.5679C15.1159 31.6 14.4621 29.3234 14.4645 27.0002C14.4645 21.93 17.5187 17.359 22.203 15.4187C26.8873 13.4784 32.2791 14.5509 35.8643 18.1361C39.4495 21.7213 40.522 27.1131 38.5817 31.7974C36.6414 36.4817 32.0704 39.5359 27.0002 39.5359C24.6775 39.5379 22.4014 38.8845 20.4334 37.6507L18.3448 39.7394Z" fill="#3A421B"/>
<path d="M49.2827 24.6479C48.5417 24.4639 47.9805 23.8579 47.8536 23.105C47.6524 22.0234 47.3661 20.9594 46.9974 19.9229C46.7432 19.2117 46.9275 18.4176 47.4689 17.8911L50.949 14.5354C50.7725 14.1989 50.5884 13.8469 50.3839 13.5046L50.1969 13.1864C50.0551 12.9453 49.9143 12.7042 49.7639 12.4699L45.1141 13.8131C44.3918 14.0211 43.6146 13.7881 43.1258 13.2172C42.4046 12.3757 41.6199 11.5907 40.7787 10.8692C40.2077 10.3783 39.9746 9.59995 40.1818 8.876L41.5115 4.24261C41.2888 4.09025 41.0487 3.95333 40.8076 3.80772L40.4884 3.61486C40.1471 3.4114 39.7951 3.22915 39.4431 3.04111L36.1019 6.53183C35.5769 7.07089 34.7863 7.25537 34.0769 7.00433C33.0364 6.63395 31.9681 6.34665 30.8822 6.14515C30.1367 6.01561 29.5376 5.45882 29.3538 4.72475L28.1851 0.0296469C27.4137 -0.0118174 26.6008 -0.00988883 25.8024 0.0296469L24.6452 4.71897C24.4628 5.45908 23.8587 6.02042 23.1072 6.14804C22.0256 6.34943 20.9616 6.63574 19.925 7.00433C19.2139 7.25852 18.4198 7.07422 17.8933 6.53279L14.5414 3.05075C14.2049 3.22722 13.8529 3.4114 13.5096 3.61583L13.1895 3.80868C12.9494 3.9514 12.7074 4.09122 12.4759 4.24068L13.8201 8.89047C14.0253 9.61294 13.7924 10.3888 13.2233 10.8788C12.382 11.6 11.5974 12.3847 10.8762 13.2259C10.3851 13.7973 9.60628 14.0304 8.88204 13.8228L4.24286 12.4882C4.08471 12.7187 3.94007 12.9704 3.79446 13.2163L3.62089 13.5055C3.42032 13.8411 3.23518 14.1863 3.05775 14.5315L6.53689 17.893C7.07562 18.4183 7.25971 19.2088 7.00843 19.918C6.63889 20.9584 6.35192 22.0263 6.15021 23.1118C6.02179 23.8607 5.46249 24.4628 4.725 24.6459L0.0308571 25.8146C0.00867857 26.2004 0 26.6005 0 26.9998C0 27.399 0.00867857 27.7991 0.0279643 28.1984L4.71729 29.3555C5.45604 29.539 6.01664 30.1416 6.14636 30.8916C6.34776 31.9732 6.63408 33.0372 7.00264 34.0738C7.25417 34.7828 7.07046 35.5733 6.53207 36.0988L3.051 39.4583C3.23421 39.8084 3.4155 40.1536 3.61607 40.4882L3.78964 40.7833C3.93525 41.033 4.07893 41.2808 4.23514 41.5229L8.88589 40.1806C9.17613 40.0986 9.48138 40.0847 9.77786 40.1401L12.8829 37.036C7.61301 29.6444 8.88912 19.4472 15.818 13.5822C22.7468 7.71716 33.0147 8.1427 39.4345 14.5609C45.8542 20.9792 46.2822 31.247 40.4188 38.1772C34.5554 45.1074 24.3585 46.386 16.9656 41.1179L13.8597 44.2248C13.9143 44.5186 13.9011 44.8211 13.8211 45.109L12.4894 49.7617C12.7103 49.9131 12.9494 50.051 13.1895 50.1957L13.5116 50.3885C13.8529 50.592 14.2049 50.7742 14.5569 50.9623L17.8971 47.4715C18.4222 46.9325 19.2128 46.748 19.9221 46.999C20.9627 47.3693 22.0309 47.6566 23.1168 47.8582C23.8618 47.9866 24.4612 48.5418 24.6462 49.2748L25.8139 53.9679C26.5854 54.0094 27.3992 54.0075 28.1976 53.9679L29.3548 49.2786C29.5388 48.5376 30.1448 47.9764 30.8976 47.8495C31.9792 47.6483 33.0433 47.362 34.0798 46.9933C34.7909 46.7391 35.585 46.9234 36.1115 47.4648L39.4673 50.9449C39.8038 50.7684 40.1558 50.5843 40.4981 50.3798L40.8163 50.1928C41.0574 50.051 41.2984 49.9102 41.5328 49.7598L40.1895 45.11C39.9841 44.3877 40.2166 43.6119 40.7854 43.1217C41.627 42.4005 42.412 41.6158 43.1335 40.7746C43.6244 40.2036 44.4027 39.9705 45.1266 40.1777L49.7706 41.5074C49.923 41.2847 50.0599 41.0446 50.2055 40.8035L50.3984 40.4843C50.6019 40.143 50.7841 39.791 50.9721 39.439L47.4814 36.0978C46.9424 35.5728 46.7579 34.7822 47.0089 34.0728C47.3793 33.0323 47.6666 31.964 47.8681 30.8781C47.9969 30.1377 48.5473 29.5413 49.275 29.3536L53.9682 28.1849C53.9884 27.7991 53.9981 27.399 53.9981 26.9998C53.9981 26.6005 53.9884 26.2013 53.9701 25.8021L49.2827 24.6479Z" fill="#3A421B"/>
<path d="M29.2978 26.9037C29.6568 27.0525 29.8913 27.4023 29.8928 27.7909V30.8573C29.8928 31.3898 30.3245 31.8216 30.8571 31.8216C31.3896 31.8216 31.8214 31.3898 31.8214 30.8573V23.143C31.8214 22.6104 31.3896 22.1787 30.8571 22.1787H23.1428C22.6102 22.1787 22.1785 22.6104 22.1785 23.143C22.1785 23.6756 22.6102 24.1073 23.1428 24.1073H26.2102C26.6001 24.1074 26.9516 24.3423 27.1009 24.7026C27.2501 25.0629 27.1676 25.4775 26.8919 25.7533L0.28921 52.3609C0.106819 52.5381 0.00390625 52.7815 0.00390625 53.0359C0.00390625 53.2902 0.106819 53.5336 0.28921 53.7109C0.665318 54.0847 1.27275 54.0847 1.64885 53.7109L28.2516 27.1062C28.528 26.8346 28.9401 26.7549 29.2978 26.9037Z" fill="#3A421B"/>
<path d="M21.8422 36.2417C23.4137 37.1373 25.1915 37.6079 27.0002 37.6072C31.2904 37.6072 35.1581 35.0228 36.7999 31.0592C38.4417 27.0956 37.5342 22.5333 34.5006 19.4996C31.467 16.466 26.9046 15.5585 22.941 17.2003C18.9774 18.8421 16.3931 22.7098 16.3931 27C16.3922 28.8094 16.8628 30.5878 17.7585 32.1599L23.8827 26.0357H23.1431C21.5454 26.0357 20.2502 24.7406 20.2502 23.1429C20.2502 21.5452 21.5454 20.25 23.1431 20.25H30.8574C32.455 20.25 33.7502 21.5452 33.7502 23.1429V30.8572C33.7502 32.4549 32.455 33.75 30.8574 33.75C29.2597 33.75 27.9645 32.4549 27.9645 30.8572V30.1185L21.8422 36.2417Z" fill="#3A421B"/>
</g>
<defs>
<clipPath id="clip0_24_286">
<rect width="54" height="54" fill="white"/>
</clipPath>
</defs>
</svg>
