<svg width="55" height="55" viewBox="0 0 55 55" fill="none" xmlns="http://www.w3.org/2000/svg">
<g clip-path="url(#clip0_24_276)">
<path d="M31.3254 35.5912L29.3335 33.5993V53.1665H38.5002V33.5984L36.5082 35.5912C35.0766 37.0214 32.757 37.0214 31.3254 35.5912Z" fill="#3A421B"/>
<path d="M25.6668 30.3132C25.4239 30.313 25.1908 30.4093 25.0187 30.5809L18.3335 36.9416V53.1666H27.5002V31.7661L26.3149 30.5809C26.1429 30.4093 25.9098 30.313 25.6668 30.3132Z" fill="#3A421B"/>
<path d="M1.8335 52.8C1.8335 53.0025 1.99766 53.1667 2.20016 53.1667H16.5002V38.6833L1.94716 52.5351C1.87469 52.6042 1.83363 52.6999 1.8335 52.8Z" fill="#3A421B"/>
<path d="M40.3335 31.7632V53.1665H48.5835C49.0898 53.1665 49.5002 52.7561 49.5002 52.2498V22.5911L40.3335 31.7632Z" fill="#3A421B"/>
<path d="M15.5833 16.5C15.5785 15.3388 14.8448 14.3058 13.75 13.9187V19.0814C14.8448 18.6943 15.5785 17.6613 15.5833 16.5Z" fill="#3A421B"/>
<path d="M11.9167 6.58521C10.8184 6.96783 10.0825 8.00351 10.0825 9.16654C10.0825 10.3296 10.8184 11.3652 11.9167 11.7479V6.58521Z" fill="#3A421B"/>
<path d="M12.8335 23.8333C18.9086 23.8333 23.8335 18.9084 23.8335 12.8333C23.8335 6.75812 18.9086 1.83325 12.8335 1.83325C6.75836 1.83325 1.8335 6.75812 1.8335 12.8333C1.84006 18.9057 6.76109 23.8267 12.8335 23.8333ZM8.25016 9.16659C8.25291 6.98941 9.78428 5.11348 11.9168 4.67492V4.58325C11.9168 4.07699 12.3272 3.66659 12.8335 3.66659C13.3398 3.66659 13.7502 4.07699 13.7502 4.58325V4.67492C15.8827 5.11348 17.4141 6.98941 17.4168 9.16659C17.4168 9.67285 17.0064 10.0833 16.5002 10.0833C15.9939 10.0833 15.5835 9.67285 15.5835 9.16659C15.5787 8.00537 14.845 6.97232 13.7502 6.58525V12.0083C15.8863 12.442 17.4214 14.3202 17.4214 16.4999C17.4214 18.6796 15.8863 20.5578 13.7502 20.9916V21.0833C13.7502 21.5895 13.3398 21.9999 12.8335 21.9999C12.3272 21.9999 11.9168 21.5895 11.9168 21.0833V20.9916C9.78428 20.553 8.25291 18.6771 8.25016 16.4999C8.25016 15.9937 8.66057 15.5833 9.16683 15.5833C9.67309 15.5833 10.0835 15.9937 10.0835 16.4999C10.0883 17.6611 10.822 18.6942 11.9168 19.0813V13.6583C9.78428 13.2197 8.25291 11.3438 8.25016 9.16659Z" fill="#3A421B"/>
<path d="M54.4336 9.23709C54.3227 9.19062 54.2036 9.16662 54.0834 9.1665H44.9167C44.4105 9.1665 44.0001 9.57691 44.0001 10.0832C44.0001 10.5894 44.4105 10.9998 44.9167 10.9998H51.8706L34.5648 28.3056C34.2069 28.6634 33.6266 28.6634 33.2686 28.3056L27.611 22.6479C26.5371 21.5744 24.7964 21.5744 23.7225 22.6479L0.26864 46.1018C0.0303462 46.3319 -0.0652218 46.6727 0.0186674 46.9932C0.102557 47.3137 0.352848 47.564 0.673341 47.6479C0.993835 47.7318 1.33466 47.6362 1.56481 47.3979L25.0186 23.9441C25.3766 23.5862 25.9569 23.5862 26.3148 23.9441L31.9725 29.6018C33.0464 30.6753 34.7871 30.6753 35.861 29.6018L53.1667 12.296V19.2498C53.1667 19.7561 53.5771 20.1665 54.0834 20.1665C54.5897 20.1665 55.0001 19.7561 55.0001 19.2498V10.0832C54.9996 9.71255 54.7761 9.37866 54.4336 9.23709Z" fill="#3A421B"/>
</g>
<defs>
<clipPath id="clip0_24_276">
<rect width="55" height="55" fill="white"/>
</clipPath>
</defs>
</svg>
