<svg width="36" height="36" viewBox="0 0 36 36" fill="none" xmlns="http://www.w3.org/2000/svg">
<g clip-path="url(#clip0_35_144)">
<path d="M32.9036 4.12017L33.9315 6.17597L35.8185 5.23252L33.2374 0.0703125L28.0751 2.65141L29.0186 4.53832L30.8652 3.61512C28.325 9.77337 19.8577 25.3828 0 25.3828V27.4922C21.1179 27.4922 30.2618 10.4511 32.9036 4.12017Z" fill="black"/>
<path d="M6.39844 31.7109H14.8359V36H6.39844V31.7109Z" fill="black"/>
<path d="M16.9453 31.7109H25.3828V36H16.9453V31.7109Z" fill="black"/>
<path d="M27.4922 31.7109H36V36H27.4922V31.7109Z" fill="black"/>
<path d="M16.9453 25.3828H25.3828V29.6016H16.9453V25.3828Z" fill="black"/>
<path d="M27.4922 25.3828H36V29.6016H27.4922V25.3828Z" fill="black"/>
<path d="M27.4922 19.0547H36V23.2734H27.4922V19.0547Z" fill="black"/>
<path d="M7.45312 16.9453C7.45312 16.746 7.45312 13.7772 7.45312 13.587C6.22814 13.1501 5.34375 11.9904 5.34375 10.6172H7.45312C7.45312 11.1991 7.92591 11.6719 8.50781 11.6719C9.08972 11.6719 9.5625 11.1991 9.5625 10.6172C9.5625 10.0353 9.08972 9.5625 8.50781 9.5625C6.76308 9.5625 5.34375 8.14317 5.34375 6.39844C5.34375 5.02523 6.22814 3.8655 7.45312 3.42865C7.45312 3.22903 7.45312 0.188719 7.45312 0C3.29667 0.524391 0 4.20912 0 8.50781C0 12.8064 3.29667 16.4209 7.45312 16.9453Z" fill="#55CC52"/>
<path d="M9.5625 13.587V16.9453C13.719 16.4209 16.9453 12.8064 16.9453 8.50781C16.9453 4.20912 13.719 0.524391 9.5625 0V3.42865C10.7875 3.8655 11.6719 5.02523 11.6719 6.39844H9.5625C9.5625 5.81653 9.08972 5.34375 8.50781 5.34375C7.92591 5.34375 7.45312 5.81653 7.45312 6.39844C7.45312 6.98034 7.92591 7.45312 8.50781 7.45312C10.2525 7.45312 11.6719 8.87245 11.6719 10.6172C11.6719 11.9904 10.7875 13.1501 9.5625 13.587Z" fill="#55CC52"/>
</g>
<defs>
<clipPath id="clip0_35_144">
<rect width="36" height="36" fill="white"/>
</clipPath>
</defs>
</svg>
