<svg width="44" height="44" viewBox="0 0 44 44" fill="none" xmlns="http://www.w3.org/2000/svg">
<g clip-path="url(#clip0_35_130)">
<path d="M28.5639 38.8438V36.3593C28.5639 33.7844 26.8151 31.5667 24.311 30.9663L20.131 30.0898L15.571 35.7806V38.0574H12.9929V35.7939L8.39154 30.0985L4.25287 30.9663C1.74883 31.5667 0 33.7844 0 36.3593V44H4.70078V40.1886H7.27891V44H18.2188V38.8438H28.5639Z" fill="black"/>
<path d="M11.3066 29.537L14.2818 32.9977L17.168 29.6087C16.2746 29.8651 15.3314 30.0027 14.3567 30.0027C13.2947 30.0028 12.2702 29.8395 11.3066 29.537Z" fill="black"/>
<path d="M22.068 8.15833H19.4899C19.4899 9.19224 18.6487 10.0334 17.6148 10.0334H11.0987C8.64321 10.0334 6.64551 12.0311 6.64551 14.4866V14.9351H22.068V8.15833Z" fill="black"/>
<path d="M14.3568 27.5107C18.6088 27.5107 22.068 24.0515 22.068 19.7995V17.5134H6.64551V19.7995C6.64551 24.0515 10.1047 27.5107 14.3568 27.5107Z" fill="black"/>
<path d="M31.5655 10.6112L29.6517 12.525L31.4747 14.348L33.3885 12.4342C33.834 12.7028 34.322 12.9076 34.8397 13.0368V15.7419H37.4178V13.0368C37.9355 12.9076 38.4234 12.7029 38.869 12.4342L40.7828 14.348L42.6058 12.525L40.692 10.6112C40.9606 10.1656 41.1654 9.67768 41.2946 9.15999H43.9997V6.58187H41.2946C41.1654 6.06418 40.9607 5.57623 40.692 5.13064L42.6058 3.2169L40.7828 1.39391L38.869 3.30765C38.4234 3.03909 37.9355 2.8343 37.4178 2.70505V0H34.8397V2.70505C34.322 2.8343 33.834 3.03901 33.3885 3.30765L31.4747 1.39382L29.6517 3.21681L31.5655 5.13064C31.2969 5.57623 31.0921 6.06418 30.9629 6.58187H28.2578V9.15999H30.9629C31.0921 9.67768 31.2969 10.1656 31.5655 10.6112ZM36.1287 5.12454C37.6431 5.12454 38.8751 6.35654 38.8751 7.87093C38.8751 9.38532 37.6431 10.6173 36.1287 10.6173C34.6144 10.6173 33.3823 9.38532 33.3823 7.87093C33.3823 6.35654 34.6144 5.12454 36.1287 5.12454Z" fill="black"/>
<path d="M30.2555 22.7146L36.5194 28.9786L41.4218 24.0762V26.2497H43.9999V19.5112H37.2613V22.0893H39.7627L36.5194 25.3326L30.2555 19.0687L22.6943 26.6298L24.5173 28.4528L30.2555 22.7146Z" fill="#55CC52"/>
<path d="M33.6445 41.3359H44V44H33.6445V41.3359Z" fill="black"/>
<path d="M33.6445 35.9489H44V38.6129H33.6445V35.9489Z" fill="black"/>
<path d="M20.7109 41.3359H31.0664V44H20.7109V41.3359Z" fill="black"/>
</g>
<defs>
<clipPath id="clip0_35_130">
<rect width="44" height="44" fill="white"/>
</clipPath>
</defs>
</svg>
