<svg width="222" height="45" viewBox="0 0 222 45" fill="none" xmlns="http://www.w3.org/2000/svg">
<path d="M56.1993 8.52539H61.8067V36H56.1993V8.52539ZM68.2755 15.2578H73.4786V17.0156C74.8614 16.2305 76.1797 15.6797 77.4337 15.3633C78.6993 15.0469 79.9356 14.8887 81.1426 14.8887C82.7247 14.8887 84.1895 15.123 85.5372 15.5918C86.8848 16.0488 88.0508 16.7344 89.0352 17.6484C90.0196 18.5625 90.7872 19.7051 91.338 21.0762C91.9005 22.4355 92.1817 24.0117 92.1817 25.8047V36H86.9962V26.6484C86.9962 25.5117 86.8321 24.498 86.504 23.6074C86.1876 22.7051 85.7247 21.9492 85.1153 21.3398C84.5176 20.7188 83.7852 20.25 82.918 19.9336C82.0626 19.6055 81.1016 19.4414 80.0352 19.4414C79.4727 19.4414 78.8926 19.5 78.295 19.6172C77.709 19.7344 77.129 19.9043 76.5547 20.127C75.9922 20.3379 75.4473 20.6074 74.92 20.9355C74.3926 21.252 73.9122 21.6152 73.4786 22.0254V36H68.2755V15.2578ZM97.3321 25.6816C97.3321 24.1582 97.6075 22.7402 98.1583 21.4277C98.7208 20.1035 99.5352 18.9609 100.602 18C101.68 17.0273 102.992 16.2656 104.539 15.7148C106.098 15.1641 107.873 14.8887 109.865 14.8887C110.732 14.8887 111.606 14.9414 112.484 15.0469C113.363 15.1523 114.207 15.3047 115.016 15.5039C115.836 15.6914 116.604 15.9199 117.318 16.1895C118.033 16.4473 118.654 16.7344 119.182 17.0508L116.773 20.9707C115.637 20.4434 114.559 20.0566 113.539 19.8105C112.531 19.5645 111.506 19.4414 110.463 19.4414C109.268 19.4414 108.195 19.5996 107.246 19.916C106.297 20.2207 105.488 20.6543 104.82 21.2168C104.164 21.7676 103.66 22.4238 103.309 23.1855C102.969 23.9355 102.799 24.7559 102.799 25.6465C102.799 26.5371 102.981 27.3633 103.344 28.125C103.719 28.875 104.24 29.5254 104.908 30.0762C105.588 30.6152 106.402 31.043 107.352 31.3594C108.313 31.6641 109.379 31.8164 110.551 31.8164C111.84 31.8164 113.053 31.6348 114.19 31.2715C115.338 30.9082 116.404 30.4219 117.389 29.8125L119.797 33.7324C119.176 34.1074 118.502 34.459 117.775 34.7871C117.049 35.1035 116.27 35.3789 115.438 35.6133C114.617 35.8477 113.75 36.0293 112.836 36.1582C111.934 36.2988 110.996 36.3691 110.023 36.3691C108.043 36.3691 106.268 36.0996 104.697 35.5605C103.127 35.0215 101.797 34.2773 100.707 33.3281C99.6172 32.3672 98.7794 31.2363 98.1934 29.9355C97.6192 28.6348 97.3321 27.2168 97.3321 25.6816ZM124.156 25.6289C124.156 24.1406 124.455 22.7461 125.053 21.4453C125.662 20.1445 126.523 19.0078 127.637 18.0352C128.762 17.0625 130.115 16.2949 131.697 15.7324C133.291 15.1699 135.078 14.8887 137.059 14.8887C139.039 14.8887 140.82 15.1699 142.402 15.7324C143.996 16.2949 145.35 17.0625 146.463 18.0352C147.588 19.0078 148.449 20.1445 149.047 21.4453C149.656 22.7461 149.961 24.1406 149.961 25.6289C149.961 27.1172 149.656 28.5117 149.047 29.8125C148.449 31.1133 147.588 32.25 146.463 33.2227C145.35 34.1953 143.996 34.9629 142.402 35.5254C140.82 36.0879 139.039 36.3691 137.059 36.3691C135.078 36.3691 133.291 36.0879 131.697 35.5254C130.115 34.9629 128.762 34.1953 127.637 33.2227C126.523 32.25 125.662 31.1133 125.053 29.8125C124.455 28.5117 124.156 27.1172 124.156 25.6289ZM129.623 25.6289C129.623 26.4609 129.787 27.252 130.115 28.002C130.455 28.7402 130.941 29.3965 131.574 29.9707C132.219 30.5332 132.998 30.9844 133.912 31.3242C134.838 31.6523 135.887 31.8164 137.059 31.8164C138.231 31.8164 139.273 31.6523 140.188 31.3242C141.113 30.9844 141.893 30.5332 142.525 29.9707C143.17 29.3965 143.656 28.7402 143.984 28.002C144.324 27.252 144.494 26.4609 144.494 25.6289C144.494 24.7969 144.324 24.0059 143.984 23.2559C143.656 22.5059 143.17 21.8496 142.525 21.2871C141.893 20.7129 141.113 20.2617 140.188 19.9336C139.273 19.5938 138.231 19.4238 137.059 19.4238C135.887 19.4238 134.838 19.5938 133.912 19.9336C132.998 20.2617 132.219 20.7129 131.574 21.2871C130.941 21.8496 130.455 22.5059 130.115 23.2559C129.787 24.0059 129.623 24.7969 129.623 25.6289ZM155.217 15.2578H160.42V17.0156C161.803 16.2305 163.121 15.6797 164.375 15.3633C165.641 15.0469 166.877 14.8887 168.084 14.8887C169.666 14.8887 171.131 15.123 172.479 15.5918C173.826 16.0488 174.992 16.7344 175.977 17.6484C176.961 18.5625 177.729 19.7051 178.279 21.0762C178.842 22.4355 179.123 24.0117 179.123 25.8047V36H173.938V26.6484C173.938 25.5117 173.773 24.498 173.445 23.6074C173.129 22.7051 172.666 21.9492 172.057 21.3398C171.459 20.7188 170.727 20.25 169.859 19.9336C169.004 19.6055 168.043 19.4414 166.977 19.4414C166.414 19.4414 165.834 19.5 165.236 19.6172C164.65 19.7344 164.07 19.9043 163.496 20.127C162.934 20.3379 162.389 20.6074 161.861 20.9355C161.334 21.252 160.854 21.6152 160.42 22.0254V36H155.217V15.2578ZM186.348 29.6367C187.754 30.4805 189.301 31.1016 190.988 31.5C192.676 31.8984 194.404 32.0977 196.174 32.0977C197.369 32.0977 198.365 32.0156 199.162 31.8516C199.959 31.6875 200.598 31.4766 201.078 31.2188C201.559 30.9609 201.898 30.668 202.098 30.3398C202.297 30.0117 202.397 29.6777 202.397 29.3379C202.397 28.8457 202.18 28.4238 201.746 28.0723C201.324 27.7207 200.621 27.5449 199.637 27.5449C199.18 27.5449 198.688 27.5742 198.16 27.6328C197.633 27.6914 197.076 27.7559 196.49 27.8262C195.916 27.8848 195.313 27.9434 194.68 28.002C194.059 28.0605 193.426 28.0898 192.781 28.0898C191.375 28.0898 190.174 27.9375 189.178 27.6328C188.193 27.3281 187.391 26.9121 186.77 26.3848C186.148 25.8574 185.697 25.2363 185.416 24.5215C185.135 23.7949 184.994 23.0156 184.994 22.1836C184.994 21.1289 185.24 20.1562 185.732 19.2656C186.225 18.375 186.928 17.6074 187.842 16.9629C188.756 16.3066 189.857 15.7969 191.147 15.4336C192.447 15.0703 193.895 14.8887 195.488 14.8887C196.32 14.8887 197.188 14.9414 198.09 15.0469C199.004 15.1406 199.9 15.2695 200.779 15.4336C201.658 15.5977 202.502 15.791 203.311 16.0137C204.119 16.2246 204.834 16.4531 205.455 16.6992L203.82 20.7422C202.496 20.25 201.172 19.8633 199.848 19.582C198.535 19.2891 197.182 19.1426 195.787 19.1426C194.815 19.1426 193.988 19.2188 193.309 19.3711C192.641 19.5117 192.096 19.7051 191.674 19.9512C191.252 20.1855 190.941 20.4609 190.742 20.7773C190.555 21.082 190.461 21.4043 190.461 21.7441C190.461 21.9902 190.508 22.2129 190.602 22.4121C190.707 22.6113 190.871 22.7871 191.094 22.9395C191.328 23.0801 191.627 23.1914 191.99 23.2734C192.365 23.3438 192.822 23.3789 193.361 23.3789C193.854 23.3789 194.375 23.3496 194.926 23.291C195.477 23.2324 196.051 23.1738 196.648 23.1152C197.246 23.0449 197.861 22.9805 198.494 22.9219C199.139 22.8633 199.795 22.834 200.463 22.834C201.705 22.834 202.789 22.9805 203.715 23.2734C204.652 23.5664 205.426 23.9766 206.035 24.5039C206.645 25.0312 207.102 25.6523 207.406 26.3672C207.711 27.082 207.863 27.8613 207.863 28.7051C207.863 29.7949 207.611 30.8086 207.107 31.7461C206.604 32.6836 205.854 33.498 204.857 34.1895C203.861 34.8691 202.619 35.4023 201.131 35.7891C199.654 36.1758 197.943 36.3691 195.998 36.3691C194.803 36.3691 193.648 36.293 192.535 36.1406C191.422 36 190.361 35.8066 189.354 35.5605C188.346 35.3027 187.397 35.0039 186.506 34.6641C185.627 34.3242 184.824 33.9609 184.098 33.5742L186.348 29.6367ZM212.697 6.83789H217.9V36H212.697V6.83789Z" fill="white"/>
<path d="M26.2642 32.9761C25.1007 34.1575 23.1995 34.171 22.0194 33.0062L-8.83457e-05 11.2738L22.7312 11.1005C23.5268 11.0945 24.2922 11.4047 24.8591 11.963L33.9403 20.9068C35.1207 22.0694 35.1352 23.9688 33.9726 25.1493L26.2642 32.9761Z" fill="#E1FE6E"/>
<path d="M40.0276 34.1841C39.4697 34.7482 38.711 35.0683 37.9176 35.0744L15.1826 35.2477L36.8686 13.2285C38.0312 12.048 39.9307 12.0336 41.1111 13.1962L48.9357 20.9023C50.1179 22.0667 50.1304 23.9696 48.9635 25.1494L40.0276 34.1841Z" fill="#FEFFFE"/>
</svg>
